<?xml version="1.0" encoding="UTF-8" standalone="no"?>
<!-- Created with Inkscape (http://www.inkscape.org/) -->

<svg
   width="1024"
   height="1024"
   viewBox="0 0 120 120"
   version="1.1"
   id="svg5"
   inkscape:version="1.1.1 (1:1.1+202109281946+c3084ef5ed)"
   sodipodi:docname="energy.svg"
   xmlns:inkscape="http://www.inkscape.org/namespaces/inkscape"
   xmlns:sodipodi="http://sodipodi.sourceforge.net/DTD/sodipodi-0.dtd"
   xmlns="http://www.w3.org/2000/svg"
   xmlns:svg="http://www.w3.org/2000/svg">
  <sodipodi:namedview
     id="namedview7"
     pagecolor="#ffffff"
     bordercolor="#666666"
     borderopacity="1.0"
     inkscape:pageshadow="2"
     inkscape:pageopacity="0.0"
     inkscape:pagecheckerboard="0"
     inkscape:document-units="px"
     showgrid="false"
     inkscape:zoom="3.7458333"
     inkscape:cx="-61.268076"
     inkscape:cy="33.770856"
     inkscape:window-width="2492"
     inkscape:window-height="1376"
     inkscape:window-x="1988"
     inkscape:window-y="27"
     inkscape:window-maximized="1"
     inkscape:current-layer="g4990" />
  <defs
     id="defs2">
	
	
	
	
	

	

	
	
	
	
	
	
	
	
	
	
	
	
</defs>
  <g
     inkscape:label="Layer 1"
     inkscape:groupmode="layer"
     id="layer1">
    <path
       style="fill:#000000;stroke-width:0.0546466"
       id="path908"
       d="" />
    <path
       id="path1098"
       style="clip-rule:evenodd;fill:#8b8b8b;fill-opacity:0.533333;fill-rule:evenodd;stroke-width:0.0454906"
       d="m -48.114163,-187.63462 c -31.356664,0 -56.773437,25.41482 -56.773437,56.77149 0,31.356662 25.416773,56.771483 56.773437,56.771483 31.356663,0 56.7714839,-25.414821 56.7714839,-56.771483 0,-31.35667 -25.4148209,-56.77149 -56.7714839,-56.77149 z m -0.07227,18.82032 20.220703,11.90039 -7.429687,4.39453 -12.791016,-7.54297 -12.755859,7.54297 -7.429688,-4.39453 z m -25.498047,14.15039 7.464844,4.39453 -7.464844,4.39453 v 8.74805 l -7.429687,-4.39454 v -8.74804 z m 25.550781,0 7.464844,4.39453 -7.464844,4.39453 -7.427734,-4.39453 z m 25.548828,0 7.464844,4.39453 v 8.74804 l -7.464844,4.39454 v -8.74805 l -7.429687,-4.39453 z m -38.322265,8.36328 12.714844,7.54297 12.792968,-7.54297 7.464844,4.39453 h -0.03125 l 0.04102,8.78906 -12.792969,7.50586 v 15.04883 l -7.427734,4.35156 -7.429688,-4.35156 v -15.04883 l -12.791016,-7.50586 v -8.78906 z m 45.791015,11.04297 v 23.83789 l -20.220703,11.859372 v -8.789062 l 12.751953,-7.50195 0.04102,-15.01172 z m -65.99414,0.004 7.425781,4.39063 0.04102,15.01172 12.753906,7.50586 v 8.789059 l -20.220703,-11.859379 z m 12.792969,7.50196 7.427734,4.39453 v 8.74804 l -7.427734,-4.35351 z m 40.404297,0 v 8.78906 l -7.427735,4.35351 v -8.74804 z m -27.648438,22.55468 7.427734,4.39453 7.464844,-4.39453 v 8.748051 l -7.464844,4.394531 -7.427734,-4.394531 z" />
    <rect
       style="fill:#8a8a8b;fill-opacity:0.534909;stroke:#f3ba2f;stroke-width:1.00157;stroke-linecap:round;stroke-linejoin:round"
       id="rect1161"
       width="34.15659"
       height="46.235519"
       x="-109.55612"
       y="-5.9098601" />
    <g
       id="g4442"
       transform="matrix(0.4560801,0,0,0.4560801,-0.6468194,1.9420264)"
       style="fill:#8b8b8b;fill-opacity:0.533333">
      <path
         id="ellipse4434"
         style="fill:#8b8b8b;fill-opacity:0.533333;stroke-width:1.01447"
         d="m -541.34318,-365.54419 a 127.22371,127.79454 0 0 0 -127.22621,127.79677 127.22371,127.79454 0 0 0 127.22621,127.79244 127.22371,127.79454 0 0 0 125.95311,-114.85347 c -6.25206,17.07583 -18.75793,31.65066 -37.3905,37.78235 -37.19932,12.23644 -77.85161,-1.28965 -108.09498,-21.80884 -28.76897,-19.53077 -53.20421,-52.18507 -49.4238,-88.46901 3.79303,-36.50915 33.98678,-58.90695 69.97638,-61.40929 22.50609,-1.6015 40.86351,4.99239 58.50547,14.37616 23.47641,12.43663 42.12901,42.81865 30.62394,63.73822 -22.17847,40.30019 -96.91763,8.00751 -90.98237,-33.64394 0.70568,-5.00469 2.78548,-10.36124 6.79272,-13.61429 5.4312,-4.35407 5.61718,1.56471 4.28143,5.38078 -4.19627,11.89863 3.71829,23.42263 13.11894,30.12891 12.7526,9.08349 41.10689,13.21208 48.3905,-5.3678 12.48798,-31.94237 -58.45829,-55.90567 -80.76275,-34.53568 -34.40183,33.01838 0.47813,66.80152 28.35241,81.81555 23.50162,12.66185 66.34713,17.88012 83.98908,-8.7573 20.85533,-33.2561 -14.43065,-70.95638 -39.57042,-88.68546 3.26631,1.81403 6.38453,3.76384 9.47841,5.73142 a 127.22371,127.79454 0 0 0 -73.23757,-23.39752 z" />
      <path
         d="m -581.35474,-124.42981 c 5.20437,1.76416 22.68251,7.40693 23.42599,1.88928 0.40324,-3.02785 -8.82098,-6.13073 -21.30896,-12.69938 -17.76121,-9.32018 -34.0097,-21.23952 -48.20034,-35.35807 -20.71304,-20.16513 -32.62329,-47.59914 -33.16688,-76.39646 -1.05852,-38.66116 14.16397,-69.91539 39.20295,-90.08425 -30.61964,23.46514 -48.95207,59.38642 -49.90154,97.77894 -0.74348,27.96367 7.13239,51.5232 21.92643,72.96826 4.59387,5.89114 9.96386,11.14296 15.96597,15.61461 14.17658,10.64746 34.90587,20.49416 52.05638,26.27457"
         fill="#ffffff"
         id="path4436"
         style="fill:#8b8b8b;fill-opacity:0.533333;stroke-width:1.01447" />
      <path
         d="m -459.29762,-295.25207 c 3.57879,-23.87233 -18.15861,-40.26266 -38.23263,-47.70712 -23.66542,-8.75819 -54.92949,-4.92961 -72.16821,14.52608 -12.60139,14.28837 -11.7823,35.03277 -5.27998,51.82347 9.8291,25.36123 32.02015,43.69087 57.85301,51.61078 18.36023,5.63026 40.5513,8.08255 59.15096,2.1395 27.1308,-8.67061 35.96439,-36.75939 30.35676,-62.49596 -1.2006,-5.56374 -3.04421,-10.97124 -5.4942,-16.11507 -3.42758,-7.14418 -13.92454,-21.60771 0.54186,-3.99123 1.51641,1.96329 2.91344,4.01468 4.18367,6.14325 2.98419,4.86733 5.35024,10.08263 7.04417,15.52702 7.88848,24.02245 1.70119,52.04867 -20.16223,66.54974 -16.77247,11.09788 -38.09403,12.42413 -57.55059,9.64653 -26.08489,-3.75352 -50.67022,-16.26522 -67.75771,-36.39654 -15.60052,-18.35467 -26.2487,-44.71683 -19.83459,-68.81437 4.70032,-17.62899 19.11631,-30.7913 36.38023,-36.28394 21.83823,-7.01906 45.88169,-3.75351 65.52726,7.64465 9.8543,5.69283 18.9021,13.5752 23.94266,23.90987 2.27982,4.65566 3.50564,9.75037 3.59139,14.92646 0.05,2.09643 -0.11455,4.19249 -0.49145,6.25585 -0.13861,0.7507 -1.73898,2.86518 -1.51216,1.12605"
         fill="#3fe0c5"
         id="path4440"
         style="fill:#8b8b8b;fill-opacity:0.533333;stroke-width:1.01447" />
      <g
         style="fill:none"
         id="g4990"
         transform="matrix(0.87102021,0,0,0.87102021,37.976241,44.67144)">
        <circle
           cx="110.40707"
           cy="92.82254"
           r="123.98928"
           style="fill:#60b6ff;fill-opacity:0.998307;fill-rule:nonzero;stroke:none;stroke-width:4.81849;stroke-linecap:butt;stroke-linejoin:miter;stroke-miterlimit:10;stroke-dasharray:none"
           id="circle20437" />
        <path
           d="m -2.5767893,41.698414 c 3.42112499,6.630236 8.726278,12.754532 14.5373723,17.4381 3.112741,2.510431 6.601325,4.775119 8.620271,8.225155 1.469638,2.51525 2.038219,5.468982 3.440398,8.027598 3.56568,6.500137 11.443904,8.947928 18.228332,11.940207 4.93413,2.173137 9.617698,4.910037 13.935061,8.138426 1.190166,0.8866 2.375514,1.84548 3.112742,3.13683 3.194661,5.61354 -3.893337,11.75229 -4.380004,18.19461 -0.313201,4.16317 2.245415,8.02278 5.266605,10.90423 3.02119,2.88145 6.60614,5.17024 9.33341,8.33116 4.75102,5.51235 6.35076,13.04846 7.01089,20.29546 0.66014,7.24701 1.15162,23.45157 3.19466,30.43838 2.04304,6.98198 13.98806,18.54635 13.19301,6.91453 -1.24798,-6.26404 -2.14422,-13.74233 2.49598,-18.12715 2.50561,-2.36587 6.090572,-3.19947 8.914202,-5.17505 7.99387,-5.59426 7.55057,-18.0645 14.33981,-25.07058 1.75875,-1.81175 3.94634,-3.18984 5.57017,-5.12205 3.26694,-3.87888 3.77769,-9.3045 4.13908,-14.36391 0.19756,-2.72726 0.36139,-5.61835 -0.92997,-8.0276 -3.69577,-6.90489 -15.52998,-4.51492 -20.0979,-10.87532 -1.76357,-2.45261 -1.99004,-5.67136 -3.27657,-8.40344 -2.10086,-4.466733 -6.832612,-7.160272 -11.598102,-8.451626 -4.76548,-1.291354 -9.76225,-1.460001 -14.60001,-2.452609 -6.71697,-1.382905 -13.00509,-4.336637 -19.047473,-7.57466 -6.26885,-3.358484 -13.159284,-8.466079 -12.82199,-15.568527 0.101188,-2.134589 0.968515,-4.307727 2.664622,-5.608718 2.548979,-1.965942 6.119477,-1.537097 9.343044,-1.43109 13.674867,0.438482 27.277447,-7.536112 33.575207,-19.678696 1.46482,-2.828451 2.67426,-5.984559 5.23288,-7.873406 1.56119,-1.151618 3.469312,-1.700925 5.295512,-2.346602 5.03532,-1.778022 9.76707,-4.413733 13.93025,-7.762581 0.81432,-0.655314 1.63346,-1.378087 2.01894,-2.346603 0.49631,-1.257624 0.16865,-2.688715 -0.35175,-3.936703 -2.49115,-5.9267368 -9.66106,-9.4442313 -15.87209,-7.7770358 -4.163172,1.117889 -7.560202,4.153535 -11.636642,5.5605328 -4.07162,1.406998 -9.80562,0.144555 -10.61995,-4.0860758 -0.21683,-1.122707 -0.0434,-2.2791435 0.18793,-3.3970315 0.89623,-4.38482249 2.61643,-8.5961791 5.04013,-12.354598 -11.64146,-4.5968357 -27.995401,-5.6087177 -40.349999,-3.5897717 l -0.0048,-0.0096 C 34.323175,-5.787763 25.177689,2.018184 17.304283,10.966111 9.2429567,20.106779 2.5211687,30.452068 -2.5767893,41.698414 Z"
           style="fill:#afe05b;fill-opacity:0.995802;fill-rule:nonzero;stroke:none;stroke-width:4.81849;stroke-linecap:butt;stroke-linejoin:miter;stroke-miterlimit:10;stroke-dasharray:none"
           stroke-linecap="round"
           id="path20439" />
        <path
           d="m 200.85005,177.63272 c -7.25664,-11.35717 -14.17117,-21.96748 -13.90615,-35.44478 0.19274,-9.68998 4.46191,-19.17758 3.19465,-28.78564 -0.19756,-1.49855 -0.5493,-3.02119 -1.43109,-4.2499 -0.88178,-1.2239 -2.2165,-2.03822 -3.54158,-2.76581 -6.81816,-3.73433 -14.44583,-5.97492 -22.19877,-6.52905 -3.37776,-0.24092 -6.88562,-0.18792 -9.98872,-1.5371 -5.88819,-2.55861 -8.66846,-9.429776 -9.32859,-15.819088 -0.49148,-4.77512 -0.0434,-9.887533 2.68872,-13.838692 2.85736,-4.129442 7.84449,-6.379675 12.82199,-7.049444 4.97749,-0.66977 10.02245,0.053 14.99513,0.775776 4.5101,0.655314 9.01538,1.30581 13.52548,1.961124 6.32186,0.915512 13.49176,1.614192 18.41626,-2.45261 3.51267,-2.900728 5.01122,-8.013142 3.6235,-12.349779 -1.38773,-4.336637 -5.57499,-7.632481 -10.11882,-7.95532 -3.60905,-0.260198 -7.09281,1.180529 -10.46575,2.486339 -7.12172,2.756174 -14.43137,5.025681 -21.86147,6.794065 -1.65756,0.395116 -3.46931,0.751684 -5.01605,0.03855 -2.1394,-0.98779 -2.92964,-3.570498 -3.48858,-5.864098 -0.8866,-3.647593 -1.75875,-7.579478 -0.36621,-11.068061 2.03822,-5.107595 7.93605,-7.208455 12.72563,-9.906807 4.78957,-2.698352 9.34786,-8.490172 6.55796,-13.231562 -0.91552,-1.5563708 -2.47189,-2.6164378 -3.68133,-3.9607958 -4.26436,-4.7317521 0.72277,-13.2267426 6.10984,-16.6285936 l -0.3662,-0.2505612 c 32.98253,22.2806776 54.66572,60.0142396 54.66572,102.8120306 -0.0145,32.818707 -12.75453,62.649957 -33.56557,84.819807 z"
           style="fill:#afe05b;fill-opacity:0.988074;fill-rule:nonzero;stroke:none;stroke-width:4.81849;stroke-linecap:butt;stroke-linejoin:miter;stroke-miterlimit:10;stroke-dasharray:none"
           stroke-linecap="round"
           id="path20441" />
        <path
           d="m 110.41189,221.63031 c -71.024486,0 -128.80295,-57.77846 -128.80295,-128.802943 0,-18.512623 3.845152,-36.379568 11.4294488,-53.114169 C -1.7046433,28.115102 5.2387947,17.369879 13.6856,7.7714552 21.8963,-1.561951 31.383899,-9.6425517 41.893016,-16.253514 62.390858,-29.15742 86.088168,-35.975577 110.42152,-35.975577 c 25.80781,0 50.71457,7.608389 72.02191,22.001207 35.56043,24.024969 56.78586,63.950942 56.78586,106.806555 0,32.862075 -12.37388,64.148505 -34.84729,88.106015 -24.27554,25.856 -58.52051,40.69211 -93.97011,40.69211 z m 0,-247.973734 c -22.511972,0 -44.436082,6.307398 -63.392005,18.2427878 C 37.296181,-1.9811592 28.5169,5.5019492 20.918148,14.136675 13.102564,23.017144 6.6747037,32.957681 1.8128507,43.688448 -5.1980452,59.165425 -8.7540882,75.69765 -8.7540882,92.827367 c 0,65.709693 53.4611002,119.165973 119.1659782,119.165973 33.28128,0 64.15332,-13.3713 86.9303,-37.65646 20.79176,-22.16022 32.24049,-51.10486 32.24049,-81.509513 0,-39.65132 -19.64015,-76.594651 -52.54077,-98.8223249 C 157.32948,-19.308435 134.2923,-26.343424 110.41189,-26.343424 Z"
           style="fill:#12222e;fill-opacity:1;fill-rule:nonzero;stroke:none;stroke-width:4.81849;stroke-linecap:butt;stroke-linejoin:miter;stroke-miterlimit:10;stroke-dasharray:none"
           stroke-linecap="round"
           id="path20443" />
        <path
           d="m 90.766918,203.45017 c -6.63506,0 -13.99288,-9.57915 -15.67453,-15.33243 -1.6672,-5.70026 -2.33697,-16.07446 -2.87182,-24.41044 -0.17347,-2.69836 -0.32766,-5.11242 -0.49631,-6.93862 -0.47221,-5.17506 -1.59491,-12.63407 -5.85927,-17.58748 -1.35882,-1.57564 -3.08865,-2.98264 -4.91968,-4.47637 -1.39736,-1.13234 -2.789902,-2.27914 -4.086075,-3.51268 -4.799212,-4.57274 -7.131359,-9.67552 -6.74588,-14.7542 0.265017,-3.53195 1.816569,-6.64951 3.185019,-9.40087 1.479275,-2.973 2.404425,-5.00158 1.806932,-6.05201 C 54.80174,100.45985 53.823587,99.72262 53.298372,99.32751 49.279755,96.32077 44.909388,93.771787 40.307734,91.743207 39.339219,91.314362 38.351429,90.899972 37.354003,90.480764 30.930961,87.787231 23.655048,84.737129 19.800259,77.711777 18.952205,76.165043 18.373987,74.584579 17.868046,73.187219 17.41029,71.924775 16.971808,70.734609 16.427319,69.799823 15.256427,67.800151 13.092927,66.123318 10.794509,64.345297 L 8.9393917,62.890114 C 2.3139737,57.551232 -3.2947443,50.81017 -6.8507862,43.910099 c -1.219077,-2.365877 -0.293928,-5.271424 2.0719489,-6.490501 2.361058,-1.223895 5.27142299,-0.298746 6.4905,2.071949 2.95855,5.733998 7.675848,11.381264 13.2749293,15.896185 l 1.705744,1.339539 c 2.785084,2.153863 5.941193,4.601654 8.051689,8.2107 0.98779,1.68647 1.614193,3.421125 2.177956,4.953403 0.395116,1.088978 0.775776,2.177956 1.325084,3.189838 2.235777,4.07162 7.38192,6.230302 12.836446,8.519083 1.05043,0.4433 2.096041,0.881783 3.112742,1.325083 5.266604,2.317692 10.268193,5.242513 14.874665,8.68773 1.50819,1.127526 3.21875,2.510429 4.41373,4.606472 3.1802,5.58945 0.43849,11.09216 -1.55637,15.11078 -1.02152,2.05749 -2.081584,4.18244 -2.206864,5.83518 -0.154192,2.04304 1.223894,4.61129 3.787334,7.05426 1.11788,1.06489 2.31769,2.03822 3.51749,3.01156 2.08159,1.69611 4.22581,3.4404 6.14357,5.66654 6.07129,7.04944 7.56502,16.50331 8.1577,22.99863 0.17346,1.9033 0.33247,4.4041 0.51076,7.194 0.48184,7.44938 1.13716,17.65011 2.50561,22.32404 0.47703,1.62865 1.77802,3.62351 3.16574,5.27143 -0.94924,-6.73143 -0.62158,-13.70378 4.59684,-18.62827 1.99967,-1.89366 4.28363,-2.973 6.29776,-3.92706 1.18053,-0.55895 2.298422,-1.0938 3.160932,-1.69611 3.09828,-2.16832 4.58238,-6.22067 6.30258,-10.91869 1.65274,-4.5101 3.52231,-9.6177 7.33855,-13.55922 0.89142,-0.91069 1.86475,-1.73465 2.84291,-2.5538 0.95888,-0.79987 1.85993,-1.55155 2.50561,-2.31287 2.20687,-2.62126 2.67426,-6.80852 3.01637,-11.60773 0.13492,-1.8503 0.30357,-4.14872 -0.37102,-5.40634 -0.86251,-1.60938 -3.26694,-2.34661 -7.12654,-3.36812 -4.20172,-1.10826 -9.42496,-2.49598 -12.63889,-6.96272 -1.52746,-2.12495 -2.19241,-4.38964 -2.77545,-6.38449 -0.27465,-0.94442 -0.53485,-1.89848 -0.949242,-2.78027 -1.21908,-2.58752 -4.31736,-4.71729 -8.49981,-5.854463 -2.42852,-0.65531 -5.01604,-0.99742 -7.75294,-1.35399 -2.19723,-0.29393 -4.39446,-0.583038 -6.56278,-1.031157 C 69.247558,90.765055 62.313758,87.387296 56.541213,84.28901 45.993548,78.636926 40.823312,71.895864 41.17988,64.253746 c 0.178284,-3.763238 1.831025,-7.116904 4.534196,-9.19849 3.642775,-2.809177 8.090237,-2.621256 11.342715,-2.476701 l 1.093796,0.04337 c 11.761921,0.409571 23.731041,-6.64951 29.142201,-17.081532 l 0.71314,-1.426272 c 1.34917,-2.741718 2.88145,-5.85446 5.93637,-8.104693 1.93703,-1.426272 3.99453,-2.134589 5.80628,-2.756174 l 0.746862,-0.25538 c 4.54383,-1.604555 8.75519,-3.946339 12.51361,-6.972349 0.15901,-0.12528 0.27947,-0.226468 0.37584,-0.313201 -0.0289,-0.09637 -0.0723,-0.212013 -0.1301,-0.346931 -1.55155,-3.700597 -6.31221,-6.0182888 -10.18146,-4.991951 -1.63346,0.438482 -3.339212,1.416634 -5.141322,2.44779 -1.89849,1.088978 -3.85961,2.211685 -6.16766,3.011554 -3.98971,1.373269 -8.57691,1.007064 -11.9884,-0.963697 -2.63571,-1.522642 -4.38964,-3.927066 -4.93894,-6.7651538 -0.38066,-1.94185 -0.11083,-3.7584185 0.19755,-5.2762416 0.60713,-2.98746119 1.54192,-5.8689157 2.78027,-8.6202711 -9.73334,-2.6453527 -22.131305,-3.3151222 -32.592238,-1.6045598 -2.64053,0.4336637 -5.102776,-1.349176 -5.531622,-3.9800697 -0.428845,-2.626074 1.353995,-5.102776 3.98007,-5.531622 14.22417,-2.327329 31.0696,-0.809506 42.89416,3.864426 1.34436,0.530034 2.38033,1.633467 2.81881,3.011554 0.44331,1.3732684 0.24093,2.876636 -0.53967,4.0860759 -2.09122,3.2283855 -3.5994,6.92898261 -4.36554,10.6970388 -0.20238,0.9781515 -0.2072,1.3636305 -0.17829,1.5130035 0.28429,0.486667 2.41888,1.108252 4.31737,0.452938 1.44554,-0.501123 2.93927,-1.353995 4.51973,-2.2598695 2.15387,-1.233532 4.59202,-2.6357116 7.439752,-3.3970324 8.49499,-2.2743253 18.16569,2.4670644 21.56272,10.5669387 1.16126,2.756174 1.29617,5.309971 0.3903,7.579478 -0.7806,1.961124 -2.12977,3.238023 -3.47413,4.317363 -4.61611,3.715053 -9.78153,6.591689 -15.35651,8.552813 l -0.81915,0.28429 c -1.27208,0.438483 -2.4767,0.848054 -3.223562,1.40218 -1.16126,0.85769 -2.0575,2.679078 -3.00674,4.601654 l -0.80469,1.609374 c -7.17472,13.819417 -22.43968,22.728797 -38.008212,22.280678 l -1.204622,-0.04819 c -1.956305,-0.08191 -4.182445,-0.183102 -5.040136,0.47703 -0.433664,0.332476 -0.751684,1.1468 -0.79505,2.023765 -0.212013,4.495647 5.478618,8.514264 10.28747,11.092154 5.1606,2.770629 11.30416,5.777364 17.74166,7.102448 1.94185,0.399934 3.91261,0.655314 5.87855,0.910694 2.92964,0.385479 5.95565,0.785413 9.01057,1.614192 7.020542,1.898484 12.243782,5.820731 14.701202,11.048783 0.67941,1.44555 1.10344,2.90073 1.47928,4.17763 0.39993,1.37809 0.78059,2.67908 1.34917,3.46449 1.19499,1.6672 4.14872,2.44779 7.28074,3.27657 4.56792,1.21426 10.25373,2.71763 13.15446,8.13842 1.99004,3.71506 1.70093,7.72404 1.48891,10.64886 -0.36138,5.01604 -0.85769,11.89202 -5.26178,17.12008 -1.19017,1.41663 -2.52489,2.52488 -3.70542,3.51267 -0.71795,0.5975 -1.44554,1.19499 -2.09604,1.86476 -2.39479,2.46706 -3.75842,6.20621 -5.20878,10.16219 -1.99485,5.43525 -4.24509,11.59327 -9.82971,15.50106 -1.52746,1.06971 -3.13684,1.83103 -4.55829,2.50562 -1.56601,0.74204 -2.920002,1.38772 -3.811422,2.22614 -2.82845,2.67426 -2.13459,8.41789 -1.08416,13.6845 0.0434,0.20719 0.0675,0.40957 0.0819,0.61676 0.54449,7.99387 -3.87406,9.65625 -5.79664,9.99836 -0.36138,0.0434 -0.74686,0.0771 -1.13234,0.0771 z"
           style="fill:#12222e;fill-opacity:1;fill-rule:nonzero;stroke:none;stroke-width:4.81849;stroke-linecap:butt;stroke-linejoin:miter;stroke-miterlimit:10;stroke-dasharray:none"
           stroke-linecap="round"
           id="path20445" />
        <path
           d="m 200.85486,182.45121 c -1.5901,0 -3.14647,-0.78542 -4.0668,-2.22614 l -0.33729,-0.52522 c -7.18436,-11.24635 -14.61447,-22.87817 -14.32536,-37.60346 0.0916,-4.54865 0.9637,-8.9142 1.81175,-13.13038 1.05525,-5.24733 2.04786,-10.20073 1.42145,-14.93248 -0.13491,-1.0408 -0.32765,-1.73466 -0.56376,-2.06713 -0.34211,-0.47703 -1.46482,-1.08898 -1.94185,-1.34918 -6.19175,-3.39221 -13.18338,-5.44971 -20.228,-5.95083 l -1.70575,-0.10119 c -3.04528,-0.16383 -6.50495,-0.35657 -9.85862,-1.81657 -6.76515,-2.94409 -11.21261,-10.138095 -12.2004,-19.746156 -0.71314,-6.924164 0.47221,-12.667799 3.51749,-17.071895 3.34885,-4.847397 9.23704,-8.157697 16.14675,-9.082846 5.66654,-0.761321 11.32826,0.06264 16.32503,0.780595 l 13.52549,1.961124 c 5.57498,0.809505 11.3138,1.36845 14.64819,-1.397361 1.98522,-1.638285 2.89109,-4.717298 2.1105,-7.169907 -0.78541,-2.447791 -3.3103,-4.433007 -5.87373,-4.61611 -2.36106,-0.134917 -5.02568,0.872146 -7.85895,1.970761 l -0.53486,0.202377 c -7.28073,2.818814 -14.84575,5.170235 -22.48305,6.991622 -1.73947,0.419209 -4.98713,1.185348 -8.1577,-0.279472 -4.42819,-2.047856 -5.58944,-6.80852 -6.14357,-9.097301 -0.92033,-3.768056 -2.17795,-8.933473 -0.16383,-13.992883 2.32251,-5.811094 7.78668,-8.634726 12.17632,-10.909052 0.90587,-0.467393 1.79729,-0.925149 2.65498,-1.406997 2.34661,-1.320265 4.39446,-3.556043 4.87149,-5.31479 0.17829,-0.674588 0.0626,-1.007064 -0.0964,-1.276899 -0.2361,-0.399934 -0.81914,-0.939605 -1.43591,-1.513004 -0.57821,-0.539671 -1.15161,-1.08416 -1.67683,-1.667197 -2.24541,-2.4911568 -3.20911,-5.8496403 -2.71281,-9.45386799 0.73723,-5.32924531 4.77994,-11.28007501 9.82972,-14.46991301 2.25986,-1.411816 5.22805,-0.746865 6.64951,1.503368 1.42145,2.250233 0.74686,5.2232383 -1.50337,6.6446916 -2.64535,1.6671961 -5.07869,5.09313951 -5.43044,7.6373 -0.15419,1.1516181 0.18311,1.5274601 0.32766,1.6912881 0.3373,0.375842 0.71314,0.717955 1.08898,1.064886 0.98779,0.9203305 2.2165,2.0719485 3.16093,3.6716855 1.54191,2.6164378 1.91775,5.6135358 1.09861,8.6684558 -1.37327,5.117232 -5.77736,9.145486 -9.44423,11.207798 -0.95406,0.534852 -1.94667,1.055248 -2.95373,1.575645 -3.43077,1.773203 -6.66879,3.450036 -7.65658,5.921919 -0.8095,2.023764 -0.21683,4.885944 0.5734,8.138422 0.49149,1.999672 0.82878,2.573072 0.98297,2.732082 -0.0145,-0.09637 0.66495,-0.202377 1.72984,-0.452938 7.20845,-1.715381 14.35427,-3.936703 21.23025,-6.601325 l 0.51558,-0.202377 c 3.52713,-1.36845 7.51683,-2.934458 12.03176,-2.601982 6.47604,0.462574 12.37869,5.107595 14.35908,11.294531 1.9804,6.186935 -0.13491,13.39539 -5.14132,17.534469 -6.38449,5.281061 -14.78793,4.58238 -22.17467,3.507858 l -13.52549,-1.961124 c -4.58238,-0.664951 -9.33823,-1.353994 -13.66041,-0.766139 -4.22581,0.563763 -7.68548,2.394787 -9.49724,5.016044 -2.12495,3.064557 -2.18277,7.459016 -1.85993,10.600669 0.23129,2.230958 1.37809,9.685156 6.45677,11.896842 1.76838,0.76614 4.09089,0.90106 6.54832,1.03597 l 1.86476,0.110833 c 8.41307,0.59749 16.76833,3.05492 24.17434,7.11208 1.82139,0.99743 3.70542,2.19241 5.12687,4.16318 1.59492,2.21168 2.07677,4.73175 2.30323,6.44231 0.83842,6.31222 -0.36138,12.29678 -1.52264,18.08378 -0.79505,3.98007 -1.55155,7.73367 -1.62383,11.42463 -0.2361,11.81011 5.8111,21.26879 12.80754,32.22603 l 0.33729,0.53003 c 1.43109,2.2406 0.77578,5.22324 -1.46964,6.65433 -0.79505,0.51076 -1.68647,0.75651 -2.57789,0.75651 z"
           style="fill:#12222e;fill-opacity:0.992359;fill-rule:nonzero;stroke:none;stroke-width:4.81849;stroke-linecap:butt;stroke-linejoin:miter;stroke-miterlimit:10;stroke-dasharray:none"
           stroke-linecap="round"
           id="path20447" />
        <path
           fill-rule="evenodd"
           clip-rule="evenodd"
           d="m -708.09005,244.11591 c -43.40641,-0.0324 -78.37106,-10.34282 -102.80126,-28.86186 -24.72311,-18.74128 -37.83863,-45.33793 -37.83863,-75.43321 0,-28.99726 13.08682,-49.906455 27.8944,-64.04021 11.60449,-11.076243 24.41033,-18.170056 33.3272,-22.250514 -2.01646,-6.125766 -4.53218,-14.145383 -6.78296,-22.428465 -3.01173,-11.083897 -5.96636,-24.0882884 -5.96636,-33.617894 0,-11.279509 2.48437,-22.607296 9.18284,-31.409417 7.07717,-9.2997 17.73129,-14.281618 30.5486,-14.281618 10.01724,0 18.52184,3.678241 25.17998,10.02358 6.36435,6.065256 10.60009,14.120051 13.52469,22.516761 5.13917,14.75444035 7.14017,33.290993 7.7014,51.78957 h 12.2767 c 0.56225,-18.498577 2.56252,-37.03512965 7.70228,-51.78957 2.9246,-8.39671 7.16064,-16.451505 13.52499,-22.516761 6.65725,-6.345339 15.16171,-10.02358 25.17924,-10.02358 12.81702,0 23.47186,4.981918 30.54861,14.281618 6.69846,8.802121 9.18297,20.129908 9.18297,31.409417 0,9.5296056 -2.95403,22.533997 -5.96695,33.617894 -2.25048,8.283082 -4.7659,16.302699 -6.78235,22.428465 8.91656,4.080458 21.72329,11.174271 33.32749,22.250514 14.80698,14.133755 27.89482,35.04295 27.89482,64.04021 0,30.09528 -13.1158,56.69193 -37.83876,75.43321 -24.43153,18.51904 -59.39574,28.82947 -102.8017,28.86186 z"
           fill="#633001"
           id="path4969"
           style="fill:#8b8b8b;fill-opacity:0.533333;stroke-width:1.47186" />
        <path
           d="m -760.52651,-37.479823 c -18.77308,0 -27.41471,14.005365 -27.41471,33.3744039 0,15.3955871 10.04079,46.2288561 14.16054,58.2316411 0.92669,2.6997 -0.52928,5.657564 -3.18482,6.704503 -15.04587,5.932657 -59.448,27.65433 -59.448,77.401975 0,52.4029 45.1226,91.91518 128.33242,91.97847 0.0331,0 0.0663,-0.002 0.0993,-0.002 0.0331,0 0.0663,0.002 0.0994,0.002 83.21041,-0.0633 128.33198,-39.57557 128.33198,-91.97847 0,-49.747645 -44.40182,-71.469318 -59.44726,-77.401975 -2.65524,-1.046939 -4.11239,-4.004803 -3.18512,-6.704503 4.11976,-12.002785 14.16084,-42.836054 14.16084,-58.2316411 0,-19.3690389 -8.64134,-33.3744039 -27.415,-33.3744039 -27.02349,0 -33.75876,38.27910815 -34.24005,79.361873 -0.0324,2.742679 -2.24902,4.967994 -4.99258,4.967994 h -26.62505 c -2.74282,0 -4.96004,-2.225315 -4.99213,-4.967994 -0.48042,-41.08276485 -7.21657,-79.361873 -34.23976,-79.361873 z"
           fill="#d1884f"
           id="path4971"
           style="fill:#8b8b8b;fill-opacity:0.533333;stroke-width:1.47186" />
        <path
           d="m -707.88238,213.42452 c -61.13842,0 -128.42543,-32.72697 -128.53082,-75.09173 -1.5e-4,0.0647 -3e-4,0.13099 -3e-4,0.19723 0,52.44558 45.19443,91.97846 128.53112,91.97846 83.337,0 128.53068,-39.53288 128.53068,-91.97846 0,-0.0663 0,-0.13247 0,-0.19723 -0.10597,42.36476 -67.39239,75.09173 -128.53068,75.09173 z"
           fill="#fedc90"
           id="path4973"
           style="fill:#8c8c8c;fill-opacity:0.780392;stroke-width:1.47186" />
        <path
           d="m -741.85249,125.32001 c 0,14.3036 -6.75955,21.75273 -15.09797,21.75273 -8.33828,0 -15.09798,-7.44913 -15.09798,-21.75273 0,-14.30361 6.7597,-21.75274 15.09798,-21.75274 8.33842,0 15.09797,7.44913 15.09797,21.75274 z"
           fill="#633001"
           id="path4975"
           style="fill:#8c8c8c;fill-opacity:0.780392;stroke-width:1.47186" />
        <path
           d="m -643.71646,125.32001 c 0,14.3036 -6.75881,21.75273 -15.09695,21.75273 -8.33959,0 -15.09841,-7.44913 -15.09841,-21.75273 0,-14.30361 6.75882,-21.75274 15.09841,-21.75274 8.33814,0 15.09695,7.44913 15.09695,21.75274 z"
           fill="#633001"
           id="path4977"
           style="fill:#8c8c8c;fill-opacity:0.780392;stroke-width:1.47186" />
        <path
           style="fill:#baee3a;fill-opacity:1;stroke:#000000;stroke-width:2.74678px;stroke-linecap:butt;stroke-linejoin:miter;stroke-opacity:1"
           d="M 46.977002,-28.505944 207.66514,-40.203221 118.36725,63.414223 222.4955,63.067042 53.316061,233.80943 95.080601,104.34041 24.198665,103.52938 Z"
           id="path20351" />
      </g>
    </g>
  </g>
</svg>
