<?xml version="1.0" encoding="UTF-8" standalone="no"?>
<!-- Created with Inkscape (http://www.inkscape.org/) -->

<svg
   width="210mm"
   height="297mm"
   viewBox="0 0 210 297"
   version="1.1"
   id="svg1179"
   inkscape:version="1.1.2 (0a00cf5339, 2022-02-04)"
   sodipodi:docname="circulation.svg"
   xmlns:inkscape="http://www.inkscape.org/namespaces/inkscape"
   xmlns:sodipodi="http://sodipodi.sourceforge.net/DTD/sodipodi-0.dtd"
   xmlns="http://www.w3.org/2000/svg"
   xmlns:svg="http://www.w3.org/2000/svg">
  <sodipodi:namedview
     id="namedview1181"
     pagecolor="#ffffff"
     bordercolor="#666666"
     borderopacity="1.0"
     inkscape:pageshadow="2"
     inkscape:pageopacity="0.0"
     inkscape:pagecheckerboard="0"
     inkscape:document-units="mm"
     showgrid="false"
     inkscape:zoom="0.80087682"
     inkscape:cx="396.44049"
     inkscape:cy="561.25984"
     inkscape:window-width="2486"
     inkscape:window-height="1376"
     inkscape:window-x="3000"
     inkscape:window-y="161"
     inkscape:window-maximized="1"
     inkscape:current-layer="layer1" />
  <defs
     id="defs1176" />
  <g
     inkscape:label="Layer 1"
     inkscape:groupmode="layer"
     id="layer1">
    <g
       id="g1326"
       transform="matrix(0.40389476,0,0,0.40389476,2.4115354,41.653042)"
       style="fill:#0d1044;fill-opacity:1">
      <g
         id="g1244"
         style="fill:#0d1044;fill-opacity:1">
	<g
   id="g1242"
   style="fill:#0d1044;fill-opacity:1">
		<path
   d="m 371.992,262.706 c -1.019,-4.308 -5.338,-6.976 -9.646,-5.958 -4.309,1.018 -6.977,5.336 -5.958,9.645 1.831,7.752 2.76,15.763 2.76,23.811 0,23.707 -7.819,45.994 -22.61,64.452 -8.978,11.203 -20.217,20.378 -32.806,26.967 l 7.949,-11.146 c 2.571,-3.605 1.733,-8.611 -1.872,-11.182 -3.604,-2.571 -8.611,-1.733 -11.182,1.872 l -23.422,32.84 c -1.604,2.25 -1.938,5.169 -0.88,7.723 1.058,2.554 3.356,4.382 6.082,4.839 l 39.782,6.662 c 0.448,0.075 0.894,0.111 1.334,0.111 3.846,0 7.241,-2.775 7.897,-6.693 0.731,-4.366 -2.216,-8.5 -6.582,-9.231 l -11.18,-1.873 c 14.337,-7.593 27.145,-18.077 37.389,-30.862 16.852,-21.026 26.133,-47.477 26.133,-74.477 10e-4,-9.289 -1.072,-18.54 -3.188,-27.5 z"
   id="path1240"
   style="fill:#0d1044;fill-opacity:1" />

	</g>

</g>
      <g
         id="g1250"
         style="fill:#0d1044;fill-opacity:1">
	<g
   id="g1248"
   style="fill:#0d1044;fill-opacity:1">
		<path
   d="m 232.189,390.592 c -22.216,-5.248 -42.361,-18.011 -56.727,-35.937 -14.792,-18.457 -22.61,-40.743 -22.61,-64.45 0,-0.777 0.016,-1.554 0.033,-2.33 l 6.181,12.555 c 1.395,2.834 4.239,4.478 7.198,4.477 1.189,0 2.396,-0.266 3.535,-0.826 3.972,-1.956 5.606,-6.761 3.651,-10.734 L 155.633,257.16 c -1.221,-2.48 -3.633,-4.156 -6.383,-4.435 -2.75,-0.277 -5.45,0.879 -7.143,3.063 l -24.719,31.873 c -2.714,3.498 -2.077,8.534 1.422,11.247 3.498,2.714 8.534,2.078 11.247,-1.422 l 6.782,-8.745 c -0.006,0.487 -0.021,0.975 -0.021,1.462 0,26.999 9.28,53.449 26.131,74.477 16.592,20.706 39.873,35.449 65.554,41.515 0.62,0.146 1.239,0.216 1.849,0.216 3.632,0 6.924,-2.486 7.795,-6.175 1.018,-4.307 -1.649,-8.625 -5.958,-9.644 z"
   id="path1246"
   style="fill:#0d1044;fill-opacity:1" />

	</g>

</g>
      <g
         id="g1256"
         style="fill:#0d1044;fill-opacity:1">
	<g
   id="g1254"
   style="fill:#0d1044;fill-opacity:1">
		<path
   d="m 357.13,227.982 -6.96,-39.731 c -0.764,-4.361 -4.919,-7.276 -9.28,-6.514 -4.361,0.764 -7.277,4.919 -6.514,9.28 l 1.946,11.11 c -21.792,-19.955 -50.159,-31.105 -80.323,-31.105 -36.932,0 -71.175,16.707 -93.947,45.837 -2.727,3.489 -2.11,8.527 1.379,11.253 1.466,1.146 3.206,1.702 4.932,1.702 2.383,0 4.741,-1.057 6.321,-3.079 19.711,-25.217 49.35,-39.679 81.315,-39.679 26.264,0 50.953,9.771 69.86,27.242 l -13.173,-3.79 c -4.255,-1.224 -8.697,1.231 -9.92,5.488 -1.225,4.254 1.232,8.697 5.488,9.92 l 38.763,11.154 c 0.73,0.211 1.475,0.312 2.216,0.312 1.953,0 3.868,-0.714 5.358,-2.053 2.055,-1.847 3.015,-4.624 2.539,-7.347 z"
   id="path1252"
   style="fill:#0d1044;fill-opacity:1" />

	</g>

</g>
      <g
         id="g1262"
         style="fill:#0d1044;fill-opacity:1">
	<g
   id="g1260"
   style="fill:#0d1044;fill-opacity:1">
		<path
   d="M 444.24,92.524 C 443.699,79.001 432.675,68.409 419.141,68.409 H 331.484 L 328.492,44.474 C 325.324,19.12 303.666,0 278.113,0 h -44.228 c -25.552,0 -47.211,19.12 -50.38,44.475 L 180.513,68.41 H 92.857 c -13.533,0 -24.558,10.593 -25.099,24.115 L 51.668,494.77 c -0.179,4.482 1.5,8.907 4.608,12.141 3.107,3.236 7.461,5.09 11.946,5.09 h 375.554 c 4.485,0 8.84,-1.854 11.947,-5.089 3.107,-3.233 4.786,-7.66 4.608,-12.141 z M 199.414,46.464 c 2.169,-17.348 16.989,-30.43 34.472,-30.43 h 44.228 c 17.483,0 32.302,13.082 34.472,30.43 l 2.742,21.945 H 196.672 Z m 244.747,449.339 c -0.157,0.164 -0.323,0.164 -0.385,0.164 H 68.223 c -0.062,0 -0.227,0 -0.385,-0.164 -0.158,-0.165 -0.152,-0.33 -0.149,-0.392 L 83.779,93.165 c 0.196,-4.891 4.184,-8.722 9.078,-8.722 h 231.519 c 0.007,0 0.015,0.001 0.022,0.001 0.005,0 0.011,-0.001 0.017,-0.001 h 94.726 c 4.894,0 8.883,3.831 9.078,8.722 l 16.09,402.246 c 0.003,0.062 0.01,0.227 -0.148,0.392 z"
   id="path1258"
   style="fill:#0d1044;fill-opacity:1" />

	</g>

</g>
      <g
         id="g1264"
         style="fill:#0d1044;fill-opacity:1">
</g>
      <g
         id="g1266"
         style="fill:#0d1044;fill-opacity:1">
</g>
      <g
         id="g1268"
         style="fill:#0d1044;fill-opacity:1">
</g>
      <g
         id="g1270"
         style="fill:#0d1044;fill-opacity:1">
</g>
      <g
         id="g1272"
         style="fill:#0d1044;fill-opacity:1">
</g>
      <g
         id="g1274"
         style="fill:#0d1044;fill-opacity:1">
</g>
      <g
         id="g1276"
         style="fill:#0d1044;fill-opacity:1">
</g>
      <g
         id="g1278"
         style="fill:#0d1044;fill-opacity:1">
</g>
      <g
         id="g1280"
         style="fill:#0d1044;fill-opacity:1">
</g>
      <g
         id="g1282"
         style="fill:#0d1044;fill-opacity:1">
</g>
      <g
         id="g1284"
         style="fill:#0d1044;fill-opacity:1">
</g>
      <g
         id="g1286"
         style="fill:#0d1044;fill-opacity:1">
</g>
      <g
         id="g1288"
         style="fill:#0d1044;fill-opacity:1">
</g>
      <g
         id="g1290"
         style="fill:#0d1044;fill-opacity:1">
</g>
      <g
         id="g1292"
         style="fill:#0d1044;fill-opacity:1">
</g>
    </g>
  </g>
</svg>
