<?xml version="1.0" encoding="UTF-8" standalone="no"?>
<!-- Created with Inkscape (http://www.inkscape.org/) -->

<svg
   width="210mm"
   height="297mm"
   viewBox="0 0 210 297"
   version="1.1"
   id="svg1397"
   inkscape:version="1.1.2 (0a00cf5339, 2022-02-04)"
   sodipodi:docname="total.svg"
   xmlns:inkscape="http://www.inkscape.org/namespaces/inkscape"
   xmlns:sodipodi="http://sodipodi.sourceforge.net/DTD/sodipodi-0.dtd"
   xmlns="http://www.w3.org/2000/svg"
   xmlns:svg="http://www.w3.org/2000/svg">
  <sodipodi:namedview
     id="namedview1399"
     pagecolor="#ffffff"
     bordercolor="#666666"
     borderopacity="1.0"
     inkscape:pageshadow="2"
     inkscape:pageopacity="0.0"
     inkscape:pagecheckerboard="0"
     inkscape:document-units="mm"
     showgrid="false"
     inkscape:zoom="0.80087682"
     inkscape:cx="396.44049"
     inkscape:cy="561.25984"
     inkscape:window-width="2486"
     inkscape:window-height="1376"
     inkscape:window-x="3000"
     inkscape:window-y="161"
     inkscape:window-maximized="1"
     inkscape:current-layer="layer1" />
  <defs
     id="defs1394" />
  <g
     inkscape:label="Layer 1"
     inkscape:groupmode="layer"
     id="layer1">
    <g
       style="fill:none;fill-opacity:1;stroke:#0d1044;stroke-opacity:1"
       id="g1467"
       transform="matrix(12.659049,0,0,12.659049,10.54654,63.121086)">
      <path
         d="m 2.5,3 v 3 m 0,2 v 3 m 0,2.5 V 15 m 10,-1.5 V 15 m -3,-5.5 c -1.10457,0 -2,-0.89543 -2,-2 0,-1.10457 0.89543,-2 2,-2 1.1046,0 2,0.89543 2,2 0,1.10457 -0.8954,2 -2,2 z m -8,-9 h 12 c 0.5523,0 1,0.447715 1,1 v 11 c 0,0.5523 -0.4477,1 -1,1 h -12 c -0.552284,0 -1,-0.4477 -1,-1 v -11 c 0,-0.552285 0.447715,-1 1,-1 z"
         stroke="#000000"
         id="path1458"
         style="fill:none;fill-opacity:1;stroke:#0d1044;stroke-opacity:1" />
    </g>
  </g>
</svg>
