<?xml version="1.0" encoding="UTF-8" standalone="no"?>
<svg
   viewBox="0 0 100 100"
   width="100px"
   height="100px"
   version="1.1"
   id="svg16"
   sodipodi:docname="coinpaprikagray.svg"
   inkscape:version="1.1.2 (0a00cf5339, 2022-02-04)"
   xmlns:inkscape="http://www.inkscape.org/namespaces/inkscape"
   xmlns:sodipodi="http://sodipodi.sourceforge.net/DTD/sodipodi-0.dtd"
   xmlns="http://www.w3.org/2000/svg"
   xmlns:svg="http://www.w3.org/2000/svg">
  <defs
     id="defs20">
    <style
       id="style841">.cls-1{fill:#ca312c;}.cls-2{fill:#91b949;}.cls-3{fill:#fff;}.cls-4{opacity:0.5;}.cls-5{fill:#a8a8a8;}</style>
  </defs>
  <sodipodi:namedview
     id="namedview18"
     pagecolor="#ffffff"
     bordercolor="#666666"
     borderopacity="1.0"
     inkscape:pageshadow="2"
     inkscape:pageopacity="0.0"
     inkscape:pagecheckerboard="0"
     showgrid="false"
     inkscape:zoom="4.495"
     inkscape:cx="40.489433"
     inkscape:cy="33.81535"
     inkscape:window-width="1920"
     inkscape:window-height="1043"
     inkscape:window-x="0"
     inkscape:window-y="360"
     inkscape:window-maximized="1"
     inkscape:current-layer="Layer_2-2" />
  <g
     id="Layer_2-2"
     data-name="Layer 2"
     transform="matrix(3.4526514,0,0,3.4526514,3.2380926,1.6000035)">
    <g
       id="Shape_6_copy_12"
       data-name="Shape 6 copy 12"
       style="fill:#8b8b8b7c;fill-opacity:0.53333336">
      <g
         id="Shape_6_copy_12-2"
         data-name="Shape 6 copy 12-2"
         style="fill:#8b8b8b7c;fill-opacity:0.53333336">
        <path
           class="cls-1"
           d="M 26.4,9.72 A 4.33,4.33 0 0 0 25.34,7.92 C 23.13,5.46 21.1,4.53 17.74,6.09 h -0.17 a 2.88,2.88 0 0 0 -2.68,2.18 c -1.24,3.57 -2.57,7.1 -3.87,10.64 v 0 c -0.19,0.26 -0.38,0.52 -0.58,0.77 -2.38,1.75 -4.68,3.38 -8,2 -1.21,-0.49 -3.18,-0.34 -2.15,2.13 a 1.3,1.3 0 0 0 0.5,0.83 4.25,4.25 0 0 0 1.09,0.83 c 4.63,3 9.7,3.66 14.59,1.3 5.55,-2.67 9.59,-6.89 10,-13.51 A 9.79,9.79 0 0 0 26.4,9.72 Z"
           id="path847"
           style="fill:#8b8b8b7c;fill-opacity:0.53333336" />
      </g>
    </g>
    <g
       id="Shape_7_copy_12"
       data-name="Shape 7 copy 12"
       style="fill:#8b8b8b7c;fill-opacity:0.53333336">
      <g
         id="Shape_7_copy_12-2"
         data-name="Shape 7 copy 12-2"
         style="fill:#8b8b8b7c;fill-opacity:0.53333336">
        <path
           class="cls-2"
           d="m 24.42,6.23 a 17.94,17.94 0 0 1 0.3,-2.75 c 0.28,-2.38 -1,-3.41 -2,-3.47 a 3.35,3.35 0 0 0 -2.59,1 A 0.93,0.93 0 0 0 20,2.27 c 0.47,0.49 0.88,0.48 1.15,-0.54 0.45,-1.65 2.37,0 2.31,0.84 -0.1,1.68 -1.31,2.31 -2.37,3 A 16.74,16.74 0 0 1 17.29,7 0.56,0.56 0 0 0 17.01,7.75 0.59,0.59 0 0 0 17.23,8 4.94,4.94 0 0 0 18.56,8 c 1.41,-0.23 1.84,0.19 2.28,1.58 A 4.4,4.4 0 0 1 23.58,9.2 c 0.93,0.34 0.94,0.91 1.26,1.31 a 0.41,0.41 0 0 0 0.51,-0.25 0.77,0.77 0 0 0 0,-0.15 7.15,7.15 0 0 1 -0.93,-3.88 z"
           id="path851"
           style="fill:#8b8b8b7c;fill-opacity:0.53333336" />
      </g>
    </g>
  </g>
</svg>
