<?xml version="1.0" encoding="UTF-8" standalone="no"?>
<!-- Created with Inkscape (http://www.inkscape.org/) -->

<svg
   width="120"
   height="120"
   viewBox="0 0 120 120"
   version="1.1"
   id="svg5"
   inkscape:version="1.1.1 (1:1.1+202109281946+c3084ef5ed)"
   sodipodi:docname="pancakegray.svg"
   xmlns:inkscape="http://www.inkscape.org/namespaces/inkscape"
   xmlns:sodipodi="http://sodipodi.sourceforge.net/DTD/sodipodi-0.dtd"
   xmlns="http://www.w3.org/2000/svg"
   xmlns:svg="http://www.w3.org/2000/svg">
  <sodipodi:namedview
     id="namedview7"
     pagecolor="#ffffff"
     bordercolor="#666666"
     borderopacity="1.0"
     inkscape:pageshadow="2"
     inkscape:pageopacity="0.0"
     inkscape:pagecheckerboard="0"
     inkscape:document-units="px"
     showgrid="false"
     inkscape:zoom="1.8729167"
     inkscape:cx="16.818687"
     inkscape:cy="-41.913237"
     inkscape:window-width="2492"
     inkscape:window-height="1376"
     inkscape:window-x="1988"
     inkscape:window-y="27"
     inkscape:window-maximized="1"
     inkscape:current-layer="g4990" />
  <defs
     id="defs2">
	
	
	
	
	
</defs>
  <g
     inkscape:label="Layer 1"
     inkscape:groupmode="layer"
     id="layer1">
    <path
       style="fill:#000000;stroke-width:0.0546466"
       id="path908"
       d="" />
    <path
       id="path1098"
       style="clip-rule:evenodd;fill:#8b8b8b7c;fill-opacity:0.533333;fill-rule:evenodd;stroke-width:0.0454906"
       d="m -48.114163,-187.63462 c -31.356664,0 -56.773437,25.41482 -56.773437,56.77149 0,31.356662 25.416773,56.771483 56.773437,56.771483 31.356663,0 56.7714839,-25.414821 56.7714839,-56.771483 0,-31.35667 -25.4148209,-56.77149 -56.7714839,-56.77149 z m -0.07227,18.82032 20.220703,11.90039 -7.429687,4.39453 -12.791016,-7.54297 -12.755859,7.54297 -7.429688,-4.39453 z m -25.498047,14.15039 7.464844,4.39453 -7.464844,4.39453 v 8.74805 l -7.429687,-4.39454 v -8.74804 z m 25.550781,0 7.464844,4.39453 -7.464844,4.39453 -7.427734,-4.39453 z m 25.548828,0 7.464844,4.39453 v 8.74804 l -7.464844,4.39454 v -8.74805 l -7.429687,-4.39453 z m -38.322265,8.36328 12.714844,7.54297 12.792968,-7.54297 7.464844,4.39453 h -0.03125 l 0.04102,8.78906 -12.792969,7.50586 v 15.04883 l -7.427734,4.35156 -7.429688,-4.35156 v -15.04883 l -12.791016,-7.50586 v -8.78906 z m 45.791015,11.04297 v 23.83789 l -20.220703,11.859372 v -8.789062 l 12.751953,-7.50195 0.04102,-15.01172 z m -65.99414,0.004 7.425781,4.39063 0.04102,15.01172 12.753906,7.50586 v 8.789059 l -20.220703,-11.859379 z m 12.792969,7.50196 7.427734,4.39453 v 8.74804 l -7.427734,-4.35351 z m 40.404297,0 v 8.78906 l -7.427735,4.35351 v -8.74804 z m -27.648438,22.55468 7.427734,4.39453 7.464844,-4.39453 v 8.748051 l -7.464844,4.394531 -7.427734,-4.394531 z" />
    <rect
       style="fill:#8b8b8b7c;fill-opacity:0.534909;stroke:#f3ba2f;stroke-width:1.00157;stroke-linecap:round;stroke-linejoin:round"
       id="rect1161"
       width="34.15659"
       height="46.235519"
       x="-109.55612"
       y="-5.9098601" />
    <g
       id="g4442"
       transform="matrix(0.4560801,0,0,0.4560801,-0.6468194,1.9420264)"
       style="fill:#8b8b8b7c;fill-opacity:0.533333">
      <path
         id="ellipse4434"
         style="fill:#8b8b8b7c;fill-opacity:0.533333;stroke-width:1.01447"
         d="m -541.34318,-365.54419 a 127.22371,127.79454 0 0 0 -127.22621,127.79677 127.22371,127.79454 0 0 0 127.22621,127.79244 127.22371,127.79454 0 0 0 125.95311,-114.85347 c -6.25206,17.07583 -18.75793,31.65066 -37.3905,37.78235 -37.19932,12.23644 -77.85161,-1.28965 -108.09498,-21.80884 -28.76897,-19.53077 -53.20421,-52.18507 -49.4238,-88.46901 3.79303,-36.50915 33.98678,-58.90695 69.97638,-61.40929 22.50609,-1.6015 40.86351,4.99239 58.50547,14.37616 23.47641,12.43663 42.12901,42.81865 30.62394,63.73822 -22.17847,40.30019 -96.91763,8.00751 -90.98237,-33.64394 0.70568,-5.00469 2.78548,-10.36124 6.79272,-13.61429 5.4312,-4.35407 5.61718,1.56471 4.28143,5.38078 -4.19627,11.89863 3.71829,23.42263 13.11894,30.12891 12.7526,9.08349 41.10689,13.21208 48.3905,-5.3678 12.48798,-31.94237 -58.45829,-55.90567 -80.76275,-34.53568 -34.40183,33.01838 0.47813,66.80152 28.35241,81.81555 23.50162,12.66185 66.34713,17.88012 83.98908,-8.7573 20.85533,-33.2561 -14.43065,-70.95638 -39.57042,-88.68546 3.26631,1.81403 6.38453,3.76384 9.47841,5.73142 a 127.22371,127.79454 0 0 0 -73.23757,-23.39752 z" />
      <path
         d="m -581.35474,-124.42981 c 5.20437,1.76416 22.68251,7.40693 23.42599,1.88928 0.40324,-3.02785 -8.82098,-6.13073 -21.30896,-12.69938 -17.76121,-9.32018 -34.0097,-21.23952 -48.20034,-35.35807 -20.71304,-20.16513 -32.62329,-47.59914 -33.16688,-76.39646 -1.05852,-38.66116 14.16397,-69.91539 39.20295,-90.08425 -30.61964,23.46514 -48.95207,59.38642 -49.90154,97.77894 -0.74348,27.96367 7.13239,51.5232 21.92643,72.96826 4.59387,5.89114 9.96386,11.14296 15.96597,15.61461 14.17658,10.64746 34.90587,20.49416 52.05638,26.27457"
         fill="#8b8b8b7c"
         id="path4436"
         style="fill:#8b8b8b7c;fill-opacity:0.533333;stroke-width:1.01447" />
      <path
         d="m -459.29762,-295.25207 c 3.57879,-23.87233 -18.15861,-40.26266 -38.23263,-47.70712 -23.66542,-8.75819 -54.92949,-4.92961 -72.16821,14.52608 -12.60139,14.28837 -11.7823,35.03277 -5.27998,51.82347 9.8291,25.36123 32.02015,43.69087 57.85301,51.61078 18.36023,5.63026 40.5513,8.08255 59.15096,2.1395 27.1308,-8.67061 35.96439,-36.75939 30.35676,-62.49596 -1.2006,-5.56374 -3.04421,-10.97124 -5.4942,-16.11507 -3.42758,-7.14418 -13.92454,-21.60771 0.54186,-3.99123 1.51641,1.96329 2.91344,4.01468 4.18367,6.14325 2.98419,4.86733 5.35024,10.08263 7.04417,15.52702 7.88848,24.02245 1.70119,52.04867 -20.16223,66.54974 -16.77247,11.09788 -38.09403,12.42413 -57.55059,9.64653 -26.08489,-3.75352 -50.67022,-16.26522 -67.75771,-36.39654 -15.60052,-18.35467 -26.2487,-44.71683 -19.83459,-68.81437 4.70032,-17.62899 19.11631,-30.7913 36.38023,-36.28394 21.83823,-7.01906 45.88169,-3.75351 65.52726,7.64465 9.8543,5.69283 18.9021,13.5752 23.94266,23.90987 2.27982,4.65566 3.50564,9.75037 3.59139,14.92646 0.05,2.09643 -0.11455,4.19249 -0.49145,6.25585 -0.13861,0.7507 -1.73898,2.86518 -1.51216,1.12605"
         fill="#8b8b8b7c"
         id="path4440"
         style="fill:#8b8b8b7c;fill-opacity:0.533333;stroke-width:1.01447" />
      <g
         style="fill:none"
         id="g4990"
         transform="matrix(0.87102021,0,0,0.87102021,37.976241,44.67144)">
        <path
           fill-rule="evenodd"
           clip-rule="evenodd"
           d="M 108.58619,240.43055 C 65.179779,240.39816 30.215126,230.08773 5.7849222,211.56869 -18.938183,192.82741 -32.0537,166.23076 -32.0537,136.13548 c 0,-28.99726 13.086816,-49.906459 27.8943913,-64.040214 C 7.4451882,61.019023 20.251024,53.92521 29.167892,49.844752 27.151434,43.718986 24.635718,35.699369 22.384938,27.416287 19.373203,16.33239 16.418576,3.327999 16.418576,-6.2016066 c 0,-11.2795094 2.484365,-22.6072964 9.182835,-31.4094174 7.077179,-9.2997 17.731292,-14.281618 30.548608,-14.281618 10.017236,0 18.521834,3.678241 25.179973,10.02358 6.364356,6.065256 10.600096,14.120051 13.524696,22.516761 5.139172,14.7544408 7.140172,33.290993 7.701402,51.78957 h 12.2767 c 0.56225,-18.498577 2.56252,-37.0351292 7.70228,-51.78957 2.9246,-8.39671 7.16064,-16.451505 13.52499,-22.516761 6.65725,-6.345339 15.16171,-10.02358 25.17924,-10.02358 12.81702,0 23.47186,4.981918 30.54861,14.281618 6.69846,8.802121 9.18297,20.129908 9.18297,31.4094174 0,9.5296056 -2.95403,22.5339966 -5.96695,33.6178936 -2.25048,8.283082 -4.7659,16.302699 -6.78235,22.428465 8.91656,4.080458 21.72329,11.174271 33.32749,22.250514 14.80698,14.133755 27.89482,35.042954 27.89482,64.040214 0,30.09528 -13.1158,56.69193 -37.83876,75.43321 -24.43153,18.51904 -59.39574,28.82947 -102.8017,28.86186 z"
           fill="#8b8b8b7c"
           id="path4969"
           style="fill:#8b8b8b7c;fill-opacity:0.533333;stroke-width:1.47186" />
        <path
           d="m 56.149725,-41.165187 c -18.773081,0 -27.414709,14.005365 -27.414709,33.3744043 0,15.3955869 10.040786,46.2288557 14.160542,58.2316407 0.926688,2.6997 -0.529283,5.657564 -3.184826,6.704503 -15.045871,5.932657 -59.447992,27.65433 -59.447992,77.401979 0,52.4029 45.1226,91.91518 128.33242,91.97847 0.0331,0 0.0663,-0.002 0.0993,-0.002 0.0331,0 0.0663,0.002 0.0994,0.002 83.21041,-0.0633 128.33198,-39.57557 128.33198,-91.97847 0,-49.747649 -44.40182,-71.469322 -59.44726,-77.401979 -2.65524,-1.046939 -4.11239,-4.004803 -3.18512,-6.704503 4.11976,-12.002785 14.16084,-42.8360538 14.16084,-58.2316407 0,-19.3690393 -8.64134,-33.3744043 -27.415,-33.3744043 -27.02349,0 -33.75876,38.2791086 -34.24005,79.361873 -0.0324,2.742679 -2.24902,4.967994 -4.99258,4.967994 H 95.38162 c -2.742828,0 -4.960049,-2.225315 -4.992136,-4.967994 -0.480417,-41.0827644 -7.216566,-79.361873 -34.239759,-79.361873 z"
           fill="#8b8b8b7c"
           id="path4971"
           style="fill:#8b8b8b7c;fill-opacity:0.533333;stroke-width:1.47186" />
        <path
           d="m 108.79386,209.73916 c -61.138429,0 -128.425439,-32.72697 -128.530826,-75.09173 -1.46e-4,0.0647 -2.94e-4,0.13099 -2.94e-4,0.19723 0,52.44558 45.194427,91.97846 128.53112,91.97846 83.337,0 128.53068,-39.53288 128.53068,-91.97846 0,-0.0663 0,-0.13247 0,-0.19723 -0.10597,42.36476 -67.39239,75.09173 -128.53068,75.09173 z"
           fill="#8b8b8b7c"
           id="path4973"
           style="fill:#8b8b8b7c;fill-opacity:0.780392;stroke-width:1.47186" />
        <path
           d="m 74.82375,121.63465 c 0,14.3036 -6.759552,21.75273 -15.097975,21.75273 -8.338277,0 -15.097976,-7.44913 -15.097976,-21.75273 0,-14.30361 6.759699,-21.75274 15.097976,-21.75274 8.338423,0 15.097975,7.44913 15.097975,21.75274 z"
           fill="#8b8b8b7c"
           id="path4975"
           style="fill:#8b8b8b7c;fill-opacity:0.780392;stroke-width:1.47186" />
        <path
           d="m 172.95978,121.63465 c 0,14.3036 -6.75881,21.75273 -15.09695,21.75273 -8.33959,0 -15.09841,-7.44913 -15.09841,-21.75273 0,-14.30361 6.75882,-21.75274 15.09841,-21.75274 8.33814,0 15.09695,7.44913 15.09695,21.75274 z"
           fill="#8b8b8b7c"
           id="path4977"
           style="fill:#8b8b8b7c;fill-opacity:0.780392;stroke-width:1.47186" />
      </g>
    </g>
  </g>
</svg>
