<?xml version="1.0" encoding="UTF-8" standalone="no"?>
<!-- Created with Inkscape (http://www.inkscape.org/) -->

<svg
   width="210mm"
   height="297mm"
   viewBox="0 0 210 297"
   version="1.1"
   id="svg5"
   inkscape:version="1.1.2 (0a00cf5339, 2022-02-04)"
   sodipodi:docname="max.svg"
   xmlns:inkscape="http://www.inkscape.org/namespaces/inkscape"
   xmlns:sodipodi="http://sodipodi.sourceforge.net/DTD/sodipodi-0.dtd"
   xmlns="http://www.w3.org/2000/svg"
   xmlns:svg="http://www.w3.org/2000/svg">
  <sodipodi:namedview
     id="namedview7"
     pagecolor="#ffffff"
     bordercolor="#666666"
     borderopacity="1.0"
     inkscape:pageshadow="2"
     inkscape:pageopacity="0.0"
     inkscape:pagecheckerboard="0"
     inkscape:document-units="mm"
     showgrid="false"
     inkscape:zoom="0.80087682"
     inkscape:cx="396.44049"
     inkscape:cy="561.25984"
     inkscape:window-width="2486"
     inkscape:window-height="1376"
     inkscape:window-x="3000"
     inkscape:window-y="161"
     inkscape:window-maximized="1"
     inkscape:current-layer="layer1" />
  <defs
     id="defs2" />
  <g
     inkscape:label="Layer 1"
     inkscape:groupmode="layer"
     id="layer1">
    <g
       id="g1116"
       transform="matrix(0.39735207,0,0,0.39735207,6.7872886,40.971374)"
       style="fill:#0d1044;fill-opacity:1">
      <g
         id="g1060"
         style="fill:#0d1044;fill-opacity:1">
	<path
   d="M 247.779,0 C 111.152,0 0.01,111.161 0.01,247.796 c 0,136.626 111.142,247.779 247.77,247.779 136.622,0 247.786,-111.153 247.786,-247.779 C 495.565,111.161 384.401,0 247.779,0 Z m 0,461.831 c -118.015,0 -214.03,-96.015 -214.03,-214.035 0,-118.029 96.016,-214.051 214.03,-214.051 118.025,0 214.042,96.021 214.042,214.051 0,118.02 -96.016,214.035 -214.042,214.035 z"
   id="path1054"
   style="fill:#0d1044;fill-opacity:1" />

	<path
   d="m 247.779,70.388 c -97.811,0 -177.385,79.587 -177.385,177.408 0,97.813 79.574,177.393 177.385,177.393 16.314,0 29.515,-13.228 29.515,-29.523 0,-16.306 -13.2,-29.525 -29.515,-29.525 -65.254,0 -118.338,-53.094 -118.338,-118.345 0,-65.268 53.084,-118.361 118.338,-118.361 65.251,0 118.352,53.094 118.352,118.361 0,16.305 13.223,29.523 29.529,29.523 16.314,0 29.52,-13.219 29.52,-29.523 0,-97.821 -79.571,-177.408 -177.401,-177.408 z"
   id="path1056"
   style="fill:#0d1044;fill-opacity:1" />

	<path
   d="m 282.252,249.278 c 0.016,-0.51 0.145,-0.981 0.145,-1.49 0,-19.107 -15.487,-34.619 -34.618,-34.619 -19.119,0 -34.601,15.512 -34.601,34.619 0,19.123 15.482,34.618 34.601,34.618 0.631,0 1.198,-0.154 1.829,-0.187 l 99.495,83.362 c 4.586,3.863 11.453,3.961 16.152,-0.081 5.248,-4.487 5.863,-12.377 1.376,-17.625 z"
   id="path1058"
   style="fill:#0d1044;fill-opacity:1" />

</g>
      <g
         id="g1062"
         style="fill:#0d1044;fill-opacity:1">
</g>
      <g
         id="g1064"
         style="fill:#0d1044;fill-opacity:1">
</g>
      <g
         id="g1066"
         style="fill:#0d1044;fill-opacity:1">
</g>
      <g
         id="g1068"
         style="fill:#0d1044;fill-opacity:1">
</g>
      <g
         id="g1070"
         style="fill:#0d1044;fill-opacity:1">
</g>
      <g
         id="g1072"
         style="fill:#0d1044;fill-opacity:1">
</g>
      <g
         id="g1074"
         style="fill:#0d1044;fill-opacity:1">
</g>
      <g
         id="g1076"
         style="fill:#0d1044;fill-opacity:1">
</g>
      <g
         id="g1078"
         style="fill:#0d1044;fill-opacity:1">
</g>
      <g
         id="g1080"
         style="fill:#0d1044;fill-opacity:1">
</g>
      <g
         id="g1082"
         style="fill:#0d1044;fill-opacity:1">
</g>
      <g
         id="g1084"
         style="fill:#0d1044;fill-opacity:1">
</g>
      <g
         id="g1086"
         style="fill:#0d1044;fill-opacity:1">
</g>
      <g
         id="g1088"
         style="fill:#0d1044;fill-opacity:1">
</g>
      <g
         id="g1090"
         style="fill:#0d1044;fill-opacity:1">
</g>
    </g>
  </g>
</svg>
